# xmcd
#
# Track frame offsets:
#	150
#	12975
#	23797
#	35525
#	53644
#	68260
#	85470
#	102248
#	115350
#	125289
#	148227
#	169758
#
# Disc length: 2522 seconds
# Revision: 2
# Processed by: cddbd v1.5.2PL0 Copyright (c) Steve Scherf et al.
# Submitted via: dBpowerAMP V12.0
#
DISCID=9b09d80c
DTITLE=Indigo Duck - Double Duck [ Disc 1]
DYEAR=2005
DGENRE=Blues
TTITLE0=Restless Blues
TTITLE1=New Coat of Paint
TTITLE2=Down the Line
TTITLE3=Bring It On Home
TTITLE4=Fishing Blues
TTITLE5=Can't Be Satisfied
TTITLE6=Willie Brown's Blues
TTITLE7=Let The Mermaids Flirt With Me
TTITLE8=Got To Let You Know
TTITLE9=Crazy Mama
TTITLE10=Little Red Rooster
TTITLE11=Help Me
EXTD=
EXTT0=
EXTT1=
EXTT2=
EXTT3=
EXTT4=
EXTT5=
EXTT6=
EXTT7=
EXTT8=
EXTT9=
EXTT10=
EXTT11=
PLAYORDER=
